<?xml version="1.0" standalone="no"?>
<!DOCTYPE svg PUBLIC "-//W3C//DTD SVG 20010904//EN"
 "http://www.w3.org/TR/2001/REC-SVG-20010904/DTD/svg10.dtd">
<svg version="1.0" xmlns="http://www.w3.org/2000/svg"
 width="128.000000pt" height="128.000000pt" viewBox="0 0 128.000000 128.000000"
 preserveAspectRatio="xMidYMid meet">

<g transform="translate(0.000000,128.000000) scale(0.100000,-0.100000)"
fill="#000000" stroke="none">
<path d="M267 1273 c-4 -3 -7 -26 -7 -50 0 -41 -1 -43 -29 -43 -51 0 -61 -21
-61 -123 0 -51 4 -97 8 -104 4 -6 25 -13 47 -15 37 -3 40 -5 43 -36 2 -22 -3
-41 -14 -54 -18 -19 -17 -31 24 -341 54 -412 64 -466 92 -489 20 -16 48 -18
280 -18 l258 0 26 31 c21 24 26 41 26 83 0 28 5 57 10 62 6 6 23 155 38 332
26 309 26 321 9 340 -12 13 -17 32 -15 54 3 31 5 33 48 36 24 2 48 9 52 15 4
7 8 56 8 109 0 108 -6 118 -69 118 -29 0 -30 2 -33 48 l-3 47 -366 3 c-201 1
-368 -1 -372 -5z m703 -368 l0 -35 -335 0 -335 0 0 28 c0 16 3 32 7 35 3 4
154 7 335 7 l328 0 0 -35z m-440 -165 c0 -25 -4 -30 -24 -30 -38 0 -49 -23
-41 -85 7 -61 -10 -105 -41 -105 -11 0 -6 -9 16 -30 31 -29 32 -31 25 -90 -8
-68 2 -90 41 -90 20 0 24 -5 24 -31 l0 -31 -52 7 c-103 14 -121 35 -113 131 7
74 1 88 -40 96 -14 2 -20 11 -20 28 0 17 6 26 20 28 41 8 47 22 40 96 -5 52
-3 76 7 89 16 22 81 46 126 47 29 0 32 -3 32 -30z m370 1 c23 -17 25 -25 25
-97 0 -89 6 -104 41 -104 19 0 24 -5 24 -25 0 -16 -7 -28 -17 -31 -46 -14 -48
-18 -45 -100 4 -70 2 -81 -17 -98 -22 -20 -88 -34 -129 -28 -29 4 -27 45 3 50
38 8 45 22 45 98 0 68 2 75 26 90 24 16 24 18 7 27 -29 16 -33 28 -33 105 l0
73 -31 6 c-33 6 -45 23 -35 49 5 14 16 15 59 10 28 -4 63 -15 77 -25z m30
-633 c0 -78 1 -78 -281 -78 -212 0 -250 2 -263 16 -9 8 -16 21 -16 28 0 8 -3
28 -6 45 l-6 31 286 0 286 0 0 -42z"/>
</g>
</svg>
